<svg width="54" height="54" viewBox="0 0 54 54" fill="none" xmlns="http://www.w3.org/2000/svg">
<g clip-path="url(#clip0_9:531)">
<path d="M27.0737 51.8839C25.454 51.8839 23.9312 51.2532 22.7858 50.1078L5.06777 32.3898C1.89484 29.2169 0.147461 24.9983 0.147461 20.5111C0.147461 16.024 1.89495 11.8054 5.06788 8.63261C8.2407 5.45979 12.4594 3.7123 16.9467 3.7123C20.6363 3.7123 24.1507 4.89708 27.0483 7.08586C29.9532 4.89075 33.4779 3.70172 37.1754 3.70172C41.6724 3.70172 45.9002 5.45292 49.0798 8.63261C52.2526 11.8053 54.0001 16.0239 54.0001 20.511C54.0001 24.9982 52.2527 29.2167 49.0799 32.3896L31.3617 50.1078C30.2162 51.2532 28.6934 51.8839 27.0737 51.8839Z" fill="#FFE1F2"/>
<path d="M19.5912 31.6839C16.656 28.8068 15.0396 24.9812 15.0396 20.9122C15.0396 16.8432 16.6561 13.0177 19.5913 10.1406C21.4042 8.3635 23.6006 7.06559 25.9821 6.34349C23.2772 4.57495 20.1016 3.63989 16.7993 3.63989C12.312 3.63989 8.09324 5.38738 4.92042 8.5602C1.74749 11.733 0 15.9516 0 20.4387C0 24.9259 1.74749 29.1445 4.92031 32.3173L22.6385 50.0354C23.7839 51.1808 25.3066 51.8115 26.9264 51.8115C28.5461 51.8115 30.0689 51.1808 31.2142 50.0355L34.728 46.5218L19.5912 31.6839Z" fill="#FFD1EB"/>
<path d="M45.8005 11.3599V11.3586C40.829 6.38713 32.7797 6.34807 27.7598 11.271L27.2345 11.7869C27.0622 11.9567 26.7874 11.9552 26.615 11.7869L26.1179 11.2953C21.1141 6.36291 13.0689 6.39116 8.1015 11.3586V11.3599C6.9728 12.4886 6.09862 13.7763 5.48169 15.1515L7.60894 18.6535H43.9057L48.4216 15.1515C47.8034 13.7763 46.9306 12.4886 45.8005 11.3599Z" fill="#EA9A98"/>
<path d="M14.8487 15.0161C15.4657 13.6409 16.3397 12.3532 17.4685 11.2245V11.2232C18.7031 9.98868 20.1356 9.05897 21.6563 8.43484C17.1015 6.72193 11.7623 7.69768 8.1015 11.3586V11.3599C6.9728 12.4886 6.09862 13.7763 5.48169 15.1515L7.60894 18.6535H13.8254C13.9829 17.4076 14.3235 16.1805 14.8487 15.0161Z" fill="#E5827F"/>
<path d="M47.6743 18.9767H6.46201L4.41626 21.641C4.64121 23.9442 5.48703 26.199 6.95654 28.1291L11.4056 30.381H41.4093L46.9454 28.1291C48.4149 26.199 49.2622 23.9442 49.4857 21.641L47.6743 18.9767Z" fill="#FCF0B6"/>
<path d="M48.4214 15.1515H5.48152C4.55749 17.2002 4.20325 19.4428 4.4161 21.6409H49.4856C49.6983 19.4428 49.3441 17.2002 48.4214 15.1515Z" fill="#F3AF90"/>
<path d="M39.1123 32.3785H15.9628L13.2803 34.6186L19.7697 41.108L21.7488 42.3798H31.8336L34.132 41.108L40.6215 34.6186L39.1123 32.3785Z" fill="#8AADDE"/>
<path d="M20.6249 32.3785H15.9628L13.2803 34.6186L19.7697 41.108L21.7487 42.3796H30.5635C27.4535 39.2559 23.5565 35.338 20.6249 32.3785Z" fill="#5F90D3"/>
<path d="M16.3236 27.9938C14.8541 26.0637 14.0082 23.8089 13.7833 21.5057C13.7019 20.6648 13.7042 19.8173 13.7889 18.9767H6.46201L4.41626 21.641C4.64121 23.9442 5.48703 26.199 6.95654 28.1291L11.4056 30.381H18.6495C17.2872 29.0006 16.396 28.089 16.3236 27.9938Z" fill="#FBE88C"/>
<path d="M13.2804 34.6186L8.10139 29.4396C7.68519 29.0235 7.30401 28.5857 6.95654 28.1291H46.9453C46.5992 28.5857 46.2167 29.0235 45.8005 29.4396L40.6215 34.6186" fill="#B1F5D5"/>
<path d="M34.1322 41.108L27.4758 47.7645C27.1862 48.054 26.7161 48.054 26.4265 47.7645L19.77 41.108H34.1322Z" fill="#D2B3EA"/>
<path d="M16.4466 28.1291H6.95654C7.30401 28.5857 7.68519 29.0235 8.10139 29.4396L13.2804 34.6186H22.8465C19.6893 31.4378 17.0414 28.7601 16.4466 28.1291Z" fill="#91F2C5"/>
<path d="M29.298 41.108H19.77L26.4265 47.7645C26.716 48.054 27.1861 48.054 27.4758 47.7645L31.6934 43.5469C30.947 42.7975 30.1495 41.9637 29.298 41.108Z" fill="#C39BE2"/>
<path d="M13.7831 21.5056C13.575 19.3556 13.9091 17.1635 14.7884 15.1515H5.48152C4.55749 17.2002 4.20325 19.4428 4.4161 21.6409H13.7986C13.7937 21.5958 13.7875 21.5508 13.7831 21.5056Z" fill="#F09971"/>
<path d="M49.0616 2.17669C48.5546 3.77079 47.3012 4.88901 45.4967 5.65595C45.4233 5.68716 45.4287 5.79407 45.5049 5.81742C47.3613 6.38504 48.5367 7.5505 49.0623 9.31185C49.0871 9.39531 49.2036 9.39389 49.2274 9.31021C49.7014 7.64323 50.975 6.52861 52.8363 5.82014C52.9075 5.79298 52.9119 5.69501 52.8435 5.66152C50.836 4.68021 49.6303 3.51932 49.2262 2.17898C49.2015 2.09639 49.0877 2.09465 49.0616 2.17669Z" fill="#FBE88C"/>
<path d="M6.33992 33.5174C5.83296 35.1115 4.57956 36.2297 2.77501 36.9967C2.70159 37.0279 2.70705 37.1348 2.7832 37.1581C4.63967 37.7257 5.81506 38.8912 6.34058 40.6525C6.36545 40.736 6.48196 40.7346 6.50575 40.6509C6.97977 38.9839 8.25334 37.8693 10.1146 37.1608C10.1859 37.1337 10.1902 37.0357 10.1218 37.0022C8.11436 36.0209 6.90853 34.86 6.50455 33.5197C6.47989 33.4371 6.3661 33.4353 6.33992 33.5174Z" fill="#FBE88C"/>
</g>
<defs>
<clipPath id="clip0_9:531">
<rect width="54" height="54" fill="white"/>
</clipPath>
</defs>
</svg>
