<svg width="54" height="49" viewBox="0 0 54 49" fill="none" xmlns="http://www.w3.org/2000/svg">
<path d="M27.0737 48.8839C25.454 48.8839 23.9312 48.2532 22.7858 47.1078L5.06777 29.3898C1.89484 26.2169 0.147461 21.9983 0.147461 17.5111C0.147461 13.024 1.89495 8.80543 5.06788 5.63261C8.2407 2.45979 12.4594 0.712303 16.9467 0.712303C20.6363 0.712303 24.1507 1.89708 27.0483 4.08586C29.9532 1.89075 33.4779 0.701721 37.1754 0.701721C41.6724 0.701721 45.9002 2.45292 49.0798 5.63261C52.2526 8.80532 54.0001 13.0239 54.0001 17.511C54.0001 21.9982 52.2527 26.2167 49.0799 29.3896L31.3617 47.1078C30.2162 48.2532 28.6934 48.8839 27.0737 48.8839Z" fill="#FFE1F2"/>
</svg>
